<svg width="181" height="41" viewBox="0 0 181 41" fill="none" xmlns="http://www.w3.org/2000/svg">
<path d="M181 40L175.423 38.5052L179.506 34.4231L181 40ZM0.654273 39.6388C0.890265 39.4129 1.12907 39.1864 1.37067 38.9592L2.05569 39.6877C1.81623 39.9129 1.57957 40.1374 1.34573 40.3612L0.654273 39.6388ZM2.85355 37.5892C3.34648 37.1415 3.84985 36.692 4.36346 36.2409L5.02337 36.9922C4.51386 37.4397 4.01461 37.8856 3.52581 38.3295L2.85355 37.5892ZM5.88663 34.9243C6.39667 34.4904 6.91593 34.0554 7.44423 33.6197L8.08047 34.3912C7.55609 34.8236 7.04075 35.2554 6.53461 35.686L5.88663 34.9243ZM9.00037 32.3555C9.5269 31.9341 10.0617 31.5123 10.6046 31.0906L11.2181 31.8803C10.679 32.2991 10.148 32.7178 9.62524 33.1362L9.00037 32.3555ZM12.1891 29.8773C12.7247 29.4731 13.2676 29.0691 13.8177 28.6657L14.4091 29.4721C13.8627 29.8728 13.3235 30.274 12.7916 30.6754L12.1891 29.8773ZM15.4487 27.4865C15.992 27.0993 16.5418 26.7128 17.0982 26.3274L17.6677 27.1494C17.115 27.5323 16.5688 27.9162 16.0291 28.3008L15.4487 27.4865ZM18.7755 25.1817C19.326 24.8111 19.8825 24.4416 20.4448 24.0735L20.9925 24.9102C20.4338 25.2759 19.881 25.643 19.334 26.0112L18.7755 25.1817ZM22.1492 22.9738C22.7123 22.6156 23.2809 22.2591 23.855 21.9043L24.3807 22.755C23.8103 23.1075 23.2453 23.4617 22.6858 23.8176L22.1492 22.9738ZM25.5756 20.8563C26.1539 20.5092 26.7373 20.1641 27.3259 19.8212L27.8293 20.6852C27.2445 21.0259 26.6648 21.3689 26.0903 21.7137L25.5756 20.8563ZM29.0632 18.8238C29.6471 18.4936 30.2357 18.1656 30.8291 17.8402L31.31 18.7169C30.7205 19.0403 30.1356 19.3662 29.5555 19.6943L29.0632 18.8238ZM32.609 16.8788C33.1982 16.5656 33.7917 16.2548 34.3896 15.9468L34.8476 16.8358C34.2536 17.1418 33.6638 17.4505 33.0784 17.7618L32.609 16.8788ZM36.1962 15.0312C36.7954 14.7324 37.3988 14.4365 38.0062 14.1436L38.4406 15.0443C37.8371 15.3353 37.2377 15.6293 36.6424 15.9261L36.1962 15.0312ZM39.8262 13.2808C40.4368 12.9963 41.0513 12.7149 41.6696 12.4369L42.0797 13.3489C41.4655 13.6251 40.8551 13.9046 40.2485 14.1872L39.8262 13.2808ZM43.5099 11.6242C44.1249 11.3576 44.7435 11.0943 45.3657 10.8345L45.7509 11.7573C45.133 12.0153 44.5185 12.2768 43.9077 12.5417L43.5099 11.6242ZM47.2428 10.066C47.8628 9.81721 48.4861 9.57198 49.1128 9.33048L49.4724 10.2636C48.85 10.5034 48.231 10.747 47.6152 10.9941L47.2428 10.066ZM51.0013 8.61787C51.6335 8.38438 52.269 8.15477 52.9075 7.92922L53.2406 8.87213C52.6065 9.09609 51.9756 9.32408 51.3478 9.55593L51.0013 8.61787ZM54.8078 7.27322C55.4442 7.0586 56.0837 6.84806 56.726 6.64178L57.0318 7.59388C56.3941 7.79868 55.7592 8.0077 55.1273 8.22079L54.8078 7.27322ZM58.6587 6.03674C59.2988 5.84154 59.9416 5.65062 60.5872 5.46413L60.8647 6.42485C60.2239 6.60996 59.5858 6.79947 58.9504 6.99325L58.6587 6.03674ZM62.5321 4.91808C63.1818 4.74092 63.8342 4.56831 64.4892 4.4004L64.7376 5.36908C64.0875 5.53571 63.44 5.70702 62.7951 5.88286L62.5321 4.91808ZM66.4425 3.91557C67.0961 3.75866 67.7522 3.6065 68.4106 3.45923L68.6289 4.43512C67.9755 4.58125 67.3245 4.73223 66.676 4.88794L66.4425 3.91557ZM70.3898 3.03292C71.0456 2.89707 71.7037 2.76614 72.364 2.64027L72.5513 3.62258C71.8962 3.74746 71.2433 3.87735 70.5926 4.01213L70.3898 3.03292ZM74.3517 2.27793C75.0156 2.16243 75.6816 2.05211 76.3498 1.9471L76.505 2.93498C75.8423 3.03913 75.1816 3.14856 74.523 3.26313L74.3517 2.27793ZM78.3407 1.65091C79.0063 1.55747 79.674 1.46937 80.3435 1.38673L80.466 2.3792C79.802 2.46115 79.1399 2.54853 78.4797 2.6412L78.3407 1.65091ZM82.3571 1.15546C83.0228 1.08469 83.6904 1.01941 84.3597 0.959717L84.4485 1.95576C83.7849 2.01495 83.1229 2.07969 82.4628 2.14985L82.3571 1.15546ZM86.373 0.797565C87.0458 0.749199 87.7203 0.706554 88.3965 0.669762L88.4509 1.66829C87.7805 1.70476 87.1118 1.74704 86.4447 1.79499L86.373 0.797565ZM90.407 0.577915C91.0782 0.55312 91.751 0.534161 92.4252 0.521152L92.4445 1.52097C91.7762 1.53386 91.1093 1.55265 90.444 1.57723L90.407 0.577915ZM94.4524 0.500118C95.1225 0.499153 95.7941 0.504139 96.467 0.51519L96.4506 1.51506C95.7836 1.5041 95.118 1.49916 94.4538 1.50012L94.4524 0.500118ZM98.4838 0.566471C99.1575 0.589676 99.8324 0.619034 100.509 0.654655L100.456 1.65327C99.7859 1.61797 99.117 1.58887 98.4494 1.56588L98.4838 0.566471ZM102.523 0.779167C103.191 0.826614 103.861 0.880253 104.531 0.940201L104.442 1.93623C103.778 1.87683 103.114 1.82367 102.452 1.77666L102.523 0.779167ZM106.547 1.13908C107.216 1.21132 107.886 1.2899 108.557 1.37493L108.431 2.36699C107.766 2.28274 107.102 2.20488 106.44 2.1333L106.547 1.13908ZM110.55 1.64628C111.215 1.74312 111.882 1.84637 112.549 1.95614L112.387 2.94288C111.726 2.83411 111.065 2.73181 110.406 2.63586L110.55 1.64628ZM114.551 2.3047C115.207 2.42527 115.864 2.5522 116.521 2.68562L116.322 3.66566C115.671 3.53346 115.02 3.40769 114.37 3.28823L114.551 2.3047ZM118.496 3.10541C119.155 3.25189 119.815 3.40494 120.475 3.56467L120.24 4.53664C119.586 4.37837 118.932 4.22672 118.279 4.08159L118.496 3.10541ZM122.428 4.05603C123.075 4.22526 123.723 4.40096 124.371 4.58325L124.1 5.54592C123.458 5.36529 122.816 5.19118 122.175 5.02351L122.428 4.05603ZM126.317 5.14993C126.962 5.34415 127.608 5.54495 128.253 5.75243L127.948 6.7045C127.308 6.4989 126.668 6.29991 126.029 6.10745L126.317 5.14993ZM130.157 6.3831C130.792 6.59982 131.428 6.82306 132.064 7.0529L131.724 7.99332C131.094 7.76552 130.464 7.54428 129.834 7.32951L130.157 6.3831ZM133.972 7.76236C134.595 8.00047 135.218 8.245 135.842 8.49603L135.469 9.42371C134.85 9.17488 134.232 8.9325 133.615 8.69649L133.972 7.76236ZM137.701 9.2633C138.321 9.52552 138.941 9.79424 139.561 10.0695L139.155 10.9835C138.54 10.7106 137.926 10.4442 137.311 10.1843L137.701 9.2633ZM141.414 10.9115C142.016 11.1912 142.618 11.4771 143.219 11.7694L142.783 12.6689C142.186 12.3791 141.589 12.0956 140.993 11.8183L141.414 10.9115ZM145.025 12.6652C145.627 12.9702 146.229 13.2815 146.831 13.5994L146.364 14.4837C145.767 14.1685 145.17 13.8597 144.573 13.5572L145.025 12.6652ZM148.612 14.5589C149.194 14.8785 149.776 15.2043 150.358 15.5362L149.863 16.4048C149.285 16.0756 148.708 15.7524 148.131 15.4354L148.612 14.5589ZM152.103 16.5507C152.685 16.895 153.267 17.2456 153.848 17.6025L153.325 18.4548C152.748 18.1007 152.171 17.7528 151.594 17.4112L152.103 16.5507ZM155.558 18.6702C156.118 19.0262 156.678 19.3882 157.238 19.756L156.689 20.5918C156.134 20.2267 155.578 19.8675 155.022 19.5143L155.558 18.6702ZM158.918 20.8777C159.478 21.2576 160.037 21.6435 160.596 22.0355L160.022 22.8544C159.467 22.4652 158.912 22.0821 158.356 21.7051L158.918 20.8777ZM162.238 23.2044C162.775 23.5928 163.312 23.9868 163.849 24.3866L163.251 25.1886C162.718 24.7916 162.185 24.4003 161.652 24.0147L162.238 23.2044ZM165.458 25.6032C165.994 26.0146 166.53 26.4317 167.066 26.8546L166.446 27.6394C165.914 27.2194 165.382 26.8051 164.849 26.3967L165.458 25.6032ZM168.646 28.1206C169.159 28.5373 169.672 28.9593 170.185 29.3869L169.544 30.1547C169.035 29.73 168.526 29.3107 168.016 28.8969L168.646 28.1206ZM171.721 30.6859C172.233 31.1244 172.744 31.5684 173.255 32.0179L172.595 32.7688C172.087 32.3221 171.579 31.8809 171.07 31.4453L171.721 30.6859ZM174.785 33.381C175.273 33.8219 175.761 34.2678 176.249 34.719L175.57 35.453C175.085 35.0046 174.6 34.5614 174.115 34.1233L174.785 33.381ZM177.711 36.0879C178.197 36.5494 178.684 37.0161 179.17 37.4881L178.473 38.2055C177.99 37.7363 177.507 37.2724 177.023 36.8137L177.711 36.0879Z" fill="#7A7A7A"/>
</svg>
