<svg width="181" height="41" viewBox="0 0 181 41" fill="none" xmlns="http://www.w3.org/2000/svg">
<path d="M181 1L175.423 2.49484L179.506 6.57692L181 1ZM0.654273 1.36121C0.890265 1.58709 1.12907 1.81364 1.37067 2.04081L2.05569 1.31229C1.81623 1.08712 1.57957 0.862607 1.34573 0.63879L0.654273 1.36121ZM2.85355 3.41085C3.34648 3.85846 3.84985 4.30803 4.36346 4.75914L5.02337 4.0078C4.51386 3.5603 4.01461 3.1144 3.52581 2.67053L2.85355 3.41085ZM5.88663 6.0757C6.39667 6.50963 6.91593 6.94462 7.44423 7.3803L8.08047 6.60881C7.55609 6.17635 7.04075 5.74465 6.53461 5.31405L5.88663 6.0757ZM9.00037 8.6445C9.5269 9.06592 10.0617 9.48767 10.6046 9.90943L11.2181 9.11971C10.679 8.70091 10.148 8.28216 9.62524 7.86377L9.00037 8.6445ZM12.1891 11.1227C12.7247 11.5269 13.2676 11.9309 13.8177 12.3343L14.4091 11.5279C13.8627 11.1272 13.3235 10.726 12.7916 10.3246L12.1891 11.1227ZM15.4487 13.5135C15.992 13.9007 16.5418 14.2872 17.0982 14.6726L17.6677 13.8506C17.115 13.4677 16.5688 13.0838 16.0291 12.6992L15.4487 13.5135ZM18.7755 15.8183C19.326 16.1889 19.8825 16.5584 20.4448 16.9265L20.9925 16.0898C20.4338 15.7241 19.881 15.357 19.334 14.9888L18.7755 15.8183ZM22.1492 18.0262C22.7123 18.3844 23.2809 18.7409 23.855 19.0957L24.3807 18.245C23.8103 17.8925 23.2453 17.5383 22.6858 17.1824L22.1492 18.0262ZM25.5756 20.1437C26.1539 20.4908 26.7373 20.8359 27.3259 21.1788L27.8293 20.3148C27.2445 19.9741 26.6648 19.6311 26.0903 19.2863L25.5756 20.1437ZM29.0632 22.1762C29.6471 22.5064 30.2357 22.8344 30.8291 23.1598L31.31 22.2831C30.7205 21.9597 30.1356 21.6338 29.5555 21.3057L29.0632 22.1762ZM32.609 24.1212C33.1982 24.4344 33.7917 24.7452 34.3896 25.0532L34.8476 24.1642C34.2536 23.8582 33.6638 23.5495 33.0784 23.2382L32.609 24.1212ZM36.1962 25.9688C36.7954 26.2676 37.3988 26.5635 38.0062 26.8564L38.4406 25.9557C37.8371 25.6647 37.2377 25.3707 36.6424 25.0739L36.1962 25.9688ZM39.8262 27.7192C40.4368 28.0037 41.0513 28.2851 41.6696 28.5631L42.0797 27.6511C41.4655 27.3749 40.8551 27.0954 40.2485 26.8128L39.8262 27.7192ZM43.5099 29.3758C44.1249 29.6424 44.7435 29.9057 45.3657 30.1655L45.7509 29.2427C45.133 28.9847 44.5185 28.7232 43.9077 28.4583L43.5099 29.3758ZM47.2428 30.934C47.8628 31.1828 48.4861 31.428 49.1128 31.6695L49.4724 30.7364C48.85 30.4966 48.231 30.253 47.6152 30.0059L47.2428 30.934ZM51.0013 32.3821C51.6335 32.6156 52.269 32.8452 52.9075 33.0708L53.2406 32.1279C52.6065 31.9039 51.9756 31.6759 51.3478 31.4441L51.0013 32.3821ZM54.8078 33.7268C55.4442 33.9414 56.0837 34.1519 56.726 34.3582L57.0318 33.4061C56.3941 33.2013 55.7592 32.9923 55.1273 32.7792L54.8078 33.7268ZM58.6587 34.9633C59.2988 35.1585 59.9416 35.3494 60.5872 35.5359L60.8647 34.5752C60.2239 34.39 59.5858 34.2005 58.9504 34.0068L58.6587 34.9633ZM62.5321 36.0819C63.1818 36.2591 63.8342 36.4317 64.4892 36.5996L64.7376 35.6309C64.0875 35.4643 63.44 35.293 62.7951 35.1171L62.5321 36.0819ZM66.4425 37.0844C67.0961 37.2413 67.7522 37.3935 68.4106 37.5408L68.6289 36.5649C67.9755 36.4188 67.3245 36.2678 66.676 36.1121L66.4425 37.0844ZM70.3898 37.9671C71.0456 38.1029 71.7037 38.2339 72.364 38.3597L72.5513 37.3774C71.8962 37.2525 71.2433 37.1227 70.5926 36.9879L70.3898 37.9671ZM74.3517 38.7221C75.0156 38.8376 75.6816 38.9479 76.3498 39.0529L76.505 38.065C75.8423 37.9609 75.1816 37.8514 74.523 37.7369L74.3517 38.7221ZM78.3407 39.3491C79.0063 39.4425 79.674 39.5306 80.3435 39.6133L80.466 38.6208C79.802 38.5388 79.1399 38.4515 78.4797 38.3588L78.3407 39.3491ZM82.3571 39.8445C83.0228 39.9153 83.6904 39.9806 84.3597 40.0403L84.4485 39.0442C83.7849 38.9851 83.1229 38.9203 82.4628 38.8501L82.3571 39.8445ZM86.373 40.2024C87.0458 40.2508 87.7203 40.2934 88.3965 40.3302L88.4509 39.3317C87.7805 39.2952 87.1118 39.253 86.4447 39.205L86.373 40.2024ZM90.407 40.4221C91.0782 40.4469 91.751 40.4658 92.4252 40.4788L92.4445 39.479C91.7762 39.4661 91.1093 39.4473 90.444 39.4228L90.407 40.4221ZM94.4524 40.4999C95.1225 40.5008 95.7941 40.4959 96.467 40.4848L96.4506 39.4849C95.7836 39.4959 95.118 39.5008 94.4538 39.4999L94.4524 40.4999ZM98.4838 40.4335C99.1575 40.4103 99.8324 40.381 100.509 40.3453L100.456 39.3467C99.7859 39.382 99.117 39.4111 98.4494 39.4341L98.4838 40.4335ZM102.523 40.2208C103.191 40.1734 103.861 40.1197 104.531 40.0598L104.442 39.0638C103.778 39.1232 103.114 39.1763 102.452 39.2233L102.523 40.2208ZM106.547 39.8609C107.216 39.7887 107.886 39.7101 108.557 39.6251L108.431 38.633C107.766 38.7173 107.102 38.7951 106.44 38.8667L106.547 39.8609ZM110.55 39.3537C111.215 39.2569 111.882 39.1536 112.549 39.0439L112.387 38.0571C111.726 38.1659 111.065 38.2682 110.406 38.3641L110.55 39.3537ZM114.551 38.6953C115.207 38.5747 115.864 38.4478 116.521 38.3144L116.322 37.3343C115.671 37.4665 115.02 37.5923 114.37 37.7118L114.551 38.6953ZM118.496 37.8946C119.155 37.7481 119.815 37.5951 120.475 37.4353L120.24 36.4634C119.586 36.6216 118.932 36.7733 118.279 36.9184L118.496 37.8946ZM122.428 36.944C123.075 36.7747 123.723 36.599 124.371 36.4168L124.1 35.4541C123.458 35.6347 122.816 35.8088 122.175 35.9765L122.428 36.944ZM126.317 35.8501C126.962 35.6558 127.608 35.455 128.253 35.2476L127.948 34.2955C127.308 34.5011 126.668 34.7001 126.029 34.8926L126.317 35.8501ZM130.157 34.6169C130.792 34.4002 131.428 34.1769 132.064 33.9471L131.724 33.0067C131.094 33.2345 130.464 33.4557 129.834 33.6705L130.157 34.6169ZM133.972 33.2376C134.595 32.9995 135.218 32.755 135.842 32.504L135.469 31.5763C134.85 31.8251 134.232 32.0675 133.615 32.3035L133.972 33.2376ZM137.701 31.7367C138.321 31.4745 138.941 31.2058 139.561 30.9305L139.155 30.0165C138.54 30.2894 137.926 30.5558 137.311 30.8157L137.701 31.7367ZM141.414 30.0885C142.016 29.8088 142.618 29.5229 143.219 29.2306L142.783 28.3311C142.186 28.6209 141.589 28.9044 140.993 29.1817L141.414 30.0885ZM145.025 28.3348C145.627 28.0298 146.229 27.7185 146.831 27.4006L146.364 26.5163C145.767 26.8315 145.17 27.1403 144.573 27.4428L145.025 28.3348ZM148.612 26.4411C149.194 26.1215 149.776 25.7957 150.358 25.4638L149.863 24.5952C149.285 24.9244 148.708 25.2476 148.131 25.5646L148.612 26.4411ZM152.103 24.4493C152.685 24.105 153.267 23.7544 153.848 23.3975L153.325 22.5452C152.748 22.8993 152.171 23.2472 151.594 23.5888L152.103 24.4493ZM155.558 22.3298C156.118 21.9738 156.678 21.6118 157.238 21.244L156.689 20.4082C156.134 20.7733 155.578 21.1325 155.022 21.4857L155.558 22.3298ZM158.918 20.1223C159.478 19.7424 160.037 19.3565 160.596 18.9645L160.022 18.1456C159.467 18.5348 158.912 18.9179 158.356 19.2949L158.918 20.1223ZM162.238 17.7956C162.775 17.4072 163.312 17.0132 163.849 16.6134L163.251 15.8114C162.718 16.2084 162.185 16.5997 161.652 16.9853L162.238 17.7956ZM165.458 15.3968C165.994 14.9854 166.53 14.5683 167.066 14.1454L166.446 13.3606C165.914 13.7806 165.382 14.1949 164.849 14.6033L165.458 15.3968ZM168.646 12.8794C169.159 12.4627 169.672 12.0407 170.185 11.6131L169.544 10.8453C169.035 11.27 168.526 11.6893 168.016 12.1031L168.646 12.8794ZM171.721 10.3141C172.233 9.87561 172.744 9.43161 173.255 8.98206L172.595 8.23121C172.087 8.67791 171.579 9.11907 171.07 9.55474L171.721 10.3141ZM174.785 7.61896C175.273 7.17812 175.761 6.73215 176.249 6.28102L175.57 5.54698C175.085 5.99536 174.6 6.43857 174.115 6.87667L174.785 7.61896ZM177.711 4.91209C178.197 4.45059 178.684 3.98389 179.17 3.51194L178.473 2.79448C177.99 3.26366 177.507 3.7276 177.023 4.18633L177.711 4.91209Z" fill="#7A7A7A"/>
</svg>
