<svg width="65" height="40" viewBox="0 0 65 40" fill="none" xmlns="http://www.w3.org/2000/svg">
<path fill-rule="evenodd" clip-rule="evenodd" d="M45.0101 32.2499C41.7787 35.0689 37.5526 36.7763 32.9276 36.7763C30.2282 36.7763 27.6647 36.1946 25.3555 35.1498C22.6637 37.7456 19.0019 39.3421 14.9671 39.3421C6.701 39.3421 0 32.6411 0 24.375C0 16.1089 6.701 9.40789 14.9671 9.40789C15.5927 9.40789 16.2094 9.44628 16.8149 9.52083C19.9452 3.8449 25.9874 0 32.9276 0C41.2785 0 48.3291 5.56668 50.5713 13.1917C51.4927 12.9549 52.4586 12.8289 53.4539 12.8289C59.8307 12.8289 65 17.9983 65 24.375C65 30.7517 59.8307 35.9211 53.4539 35.9211C50.1209 35.9211 47.1177 34.5087 45.0101 32.2499Z" fill="white"/>
</svg>
