<svg width="85" height="52" viewBox="0 0 85 52" fill="none" xmlns="http://www.w3.org/2000/svg">
<path fill-rule="evenodd" clip-rule="evenodd" d="M58.8594 42.1729C54.6337 45.8593 49.1072 48.0921 43.0592 48.0921C39.5292 48.0921 36.1769 47.3315 33.1572 45.9651C29.6372 49.3596 24.8486 51.4474 19.5724 51.4474C8.76285 51.4474 0 42.6845 0 31.875C0 21.0655 8.76285 12.3026 19.5724 12.3026C20.3905 12.3026 21.1969 12.3528 21.9887 12.4503C26.0822 5.02795 33.9835 0 43.0592 0C53.9795 0 63.1996 7.27951 66.1316 17.2507C67.3366 16.941 68.5997 16.7763 69.9013 16.7763C78.2401 16.7763 85 23.5362 85 31.875C85 40.2138 78.2401 46.9737 69.9013 46.9737C65.5427 46.9737 61.6154 45.1268 58.8594 42.1729Z" fill="white"/>
</svg>
