<svg width="41" height="25" viewBox="0 0 41 25" fill="none" xmlns="http://www.w3.org/2000/svg">
<path fill-rule="evenodd" clip-rule="evenodd" d="M28.391 20.3422C26.3527 22.1204 23.687 23.1974 20.7697 23.1974C19.067 23.1974 17.45 22.8305 15.9934 22.1714C14.2956 23.8087 11.9858 24.8158 9.44079 24.8158C4.22679 24.8158 0 20.589 0 15.375C0 10.161 4.22679 5.93418 9.44079 5.93418C9.83542 5.93418 10.2244 5.9584 10.6063 6.00542C12.5808 2.42524 16.392 0 20.7697 0C26.0372 0 30.4845 3.51131 31.8988 8.32096C32.48 8.17158 33.0893 8.09214 33.7171 8.09214C37.7393 8.09214 41 11.3528 41 15.375C41 19.3973 37.7393 22.6579 33.7171 22.6579C31.6147 22.6579 29.7204 21.7671 28.391 20.3422Z" fill="white"/>
</svg>
